<?xml version="1.0" encoding="UTF-8" standalone="no"?>
<svg
   xmlns:dc="http://purl.org/dc/elements/1.1/"
   xmlns:cc="http://creativecommons.org/ns#"
   xmlns:rdf="http://www.w3.org/1999/02/22-rdf-syntax-ns#"
   xmlns:svg="http://www.w3.org/2000/svg"
   xmlns="http://www.w3.org/2000/svg"
   xmlns:sodipodi="http://sodipodi.sourceforge.net/DTD/sodipodi-0.dtd"
   xmlns:inkscape="http://www.inkscape.org/namespaces/inkscape"
   width="297mm"
   height="297mm"
   viewBox="0 0 297 297"
   version="1.1"
   id="svg8"
   inkscape:version="1.0.1 (3bc2e813f5, 2020-09-07)"
   sodipodi:docname="Logo.svg">
  <defs
     id="defs2" />
  <sodipodi:namedview
     id="base"
     pagecolor="#ffffff"
     bordercolor="#666666"
     borderopacity="1.0"
     inkscape:pageopacity="0.0"
     inkscape:pageshadow="2"
     inkscape:zoom="0.51110327"
     inkscape:cx="365.13263"
     inkscape:cy="503.12263"
     inkscape:document-units="mm"
     inkscape:current-layer="layer1"
     inkscape:document-rotation="0"
     showgrid="false"
     inkscape:window-width="1400"
     inkscape:window-height="987"
     inkscape:window-x="-8"
     inkscape:window-y="18"
     inkscape:window-maximized="1" />
  <metadata
     id="metadata5">
    <rdf:RDF>
      <cc:Work
         rdf:about="">
        <dc:format>image/svg+xml</dc:format>
        <dc:type
           rdf:resource="http://purl.org/dc/dcmitype/StillImage" />
        <dc:title />
      </cc:Work>
    </rdf:RDF>
  </metadata>
  <g
     inkscape:label="Ebene 1"
     inkscape:groupmode="layer"
     id="layer1">
    <path
       id="path3627"
       style="fill:#792688;fill-opacity:1;stroke-width:0.203175"
       d="M 30.455679,76.126659 A 136.94015,136.94015 0 0 0 18.574458,230.0012 a 102.70511,102.70511 0 0 0 0.139409,0.24203 102.70511,102.70511 0 0 0 118.592843,46.98033 102.70511,102.70511 0 0 0 21.70422,-9.38743 102.70511,102.70511 0 0 0 48.63025,-65.45517 102.70511,102.70511 0 0 1 -65.13673,27.73064 32.523287,32.523287 0 0 1 1.6492,10.22565 32.523287,32.523287 0 0 1 -32.52324,32.5236 32.523287,32.523287 0 0 1 -32.523251,-32.5236 32.523287,32.523287 0 0 1 9.117462,-22.58136 102.70511,102.70511 0 0 1 -21.251673,-15.37493 102.70511,102.70511 0 0 1 -0.01593,-0.0152 129.11525,129.11525 0 0 0 0.0598,0.25688 129.11525,129.11525 0 0 1 -40.694573,-94.08772 129.11525,129.11525 0 0 1 3.422233,-29.530559 129.11525,129.11525 0 0 1 0.711196,-2.877692 z" />
    <circle
       style="fill:#792688;fill-opacity:1;stroke:#ffffff;stroke-width:0;stroke-linecap:round;stroke-linejoin:round;stroke-miterlimit:4;stroke-dasharray:none;stroke-opacity:1;paint-order:fill markers stroke"
       id="path3727"
       cx="111.63054"
       cy="240.3374"
       r="28.846254" />
    <path
       id="path3625"
       style="fill:#d27332;fill-opacity:1;stroke-width:0.203175"
       d="M 144.02875,0.10899101 A 102.70511,102.70511 0 0 0 44.046248,79.324211 102.70511,102.70511 0 0 0 41.323889,102.81421 102.70511,102.70511 0 0 0 73.694637,177.65681 102.70511,102.70511 0 0 1 87.544206,98.226106 32.517865,32.517865 0 0 1 79.551215,94.937621 32.517865,32.517865 0 0 1 67.648761,50.517229 32.517865,32.517865 0 0 1 112.0688,38.615132 a 32.517865,32.517865 0 0 1 15.93221,23.56253 102.70511,102.70511 0 0 1 15.19872,-6.089396 131.70697,131.70697 0 0 0 -0.0194,-0.006 131.70697,131.70697 0 0 1 1.65769,-0.48793 102.70511,102.70511 0 0 1 4.43914,-1.191695 102.70511,102.70511 0 0 1 0.009,-0.0021 131.70697,131.70697 0 0 1 121.7642,31.480513 136.94015,136.94015 0 0 0 -8.42749,-17.301881 136.94015,136.94015 0 0 0 -118.23052,-68.4694346 102.70511,102.70511 0 0 0 -0.36338,-7.5317e-4 z" />
    <circle
       style="fill:#d27332;fill-opacity:1;stroke:#ffffff;stroke-width:0;stroke-linecap:round;stroke-linejoin:round;stroke-miterlimit:4;stroke-dasharray:none;stroke-opacity:1;paint-order:fill markers stroke"
       id="circle3740"
       cx="9.9249687"
       cy="-116.36201"
       r="28.846254"
       transform="rotate(120)" />
    <path
       id="path3623"
       style="fill:#238471;fill-opacity:1;stroke:#ffffff;stroke-width:0;stroke-linecap:round;stroke-linejoin:round;stroke-miterlimit:4;stroke-dasharray:none;stroke-opacity:1;paint-order:fill markers stroke"
       d="m 193.09421,68.713589 a 102.70511,102.70511 0 0 0 -29.5019,4.372619 102.70511,102.70511 0 0 1 58.12773,45.006332 32.517865,32.517865 0 0 1 7.38333,-5.83534 32.517865,32.517865 0 0 1 44.42039,11.90209 32.517865,32.517865 0 0 1 -11.90243,44.42039 32.517865,32.517865 0 0 1 -24.97326,3.16677 102.70511,102.70511 0 0 1 -2.3066,21.31855 139.10161,139.10161 0 0 0 0.11181,-0.10474 139.10161,139.10161 0 0 1 -65.86385,88.65113 139.10161,139.10161 0 0 1 -18.56576,8.95541 136.94015,136.94015 0 0 0 82.03842,-17.67234 136.94015,136.94015 0 0 0 49.89449,-49.72888 102.70511,102.70511 0 0 0 0.22928,-103.09973 102.70511,102.70511 0 0 0 -18.61105,-23.490354 102.70511,102.70511 0 0 0 -70.4806,-27.861907 z" />
    <circle
       style="fill:#238471;fill-opacity:1;stroke:#ffffff;stroke-width:0;stroke-linecap:round;stroke-linejoin:round;stroke-miterlimit:4;stroke-dasharray:none;stroke-opacity:1;paint-order:fill markers stroke"
       id="circle3742"
       cx="-244.28708"
       cy="142.2809"
       r="28.846254"
       transform="rotate(-120)" />
    <path
       style="fill:#999999;fill-opacity:1;stroke:#999999;stroke-width:11.4651;stroke-linecap:round;stroke-linejoin:round;stroke-miterlimit:4;stroke-dasharray:none;stroke-opacity:1"
       d="M 95.600375,191.6298 H 201.19238 L 191.2218,158.704 170.81921,172.59513 134.13794,89.4654 95.600375,191.6298"
       id="path3775"
       sodipodi:nodetypes="cccccc" />
    <path
       id="path3777"
       style="fill:#999999;fill-opacity:1;stroke:#1a1a1a;stroke-width:0;stroke-linecap:round;stroke-linejoin:round;stroke-miterlimit:4;stroke-dasharray:none;stroke-opacity:1;paint-order:fill markers stroke"
       d="m 164.9365,102.64614 a 21.008356,21.008356 0 0 0 -13.22011,4.70309 l 16.36211,37.08163 a 21.008356,21.008356 0 0 0 17.89278,-20.77648 21.008356,21.008356 0 0 0 -21.00824,-21.00824 21.008356,21.008356 0 0 0 -0.0265,0 z" />
  </g>
</svg>
